<svg width="2048" height="2048" viewBox="0 0 2048 2048" fill="none" xmlns="http://www.w3.org/2000/svg">
  <defs>
    <linearGradient id="blueGradient" x1="0" y1="0" x2="0" y2="1">
      <stop offset="0%" stop-color="#3B82F6"/>
      <stop offset="100%" stop-color="#1D4ED8"/>
    </linearGradient>

```
<linearGradient id="redGradient" x1="0" y1="0" x2="0" y2="1">
  <stop offset="0%" stop-color="#FF6B6B"/>
  <stop offset="100%" stop-color="#EF4444"/>
</linearGradient>
```

  </defs>

  <!-- BLUE WAVE -->

  <rect x="180" y="880" width="90" height="288" rx="45" fill="url(#blueGradient)"/>
  <rect x="340" y="720" width="90" height="608" rx="45" fill="url(#blueGradient)"/>
  <rect x="500" y="560" width="90" height="928" rx="45" fill="url(#blueGradient)"/>
  <rect x="660" y="720" width="90" height="608" rx="45" fill="url(#blueGradient)"/>
  <rect x="820" y="880" width="90" height="288" rx="45" fill="url(#blueGradient)"/>

  <!-- CENTER GAP (90px) -->

  <!-- RED WAVE -->

  <rect x="1000" y="880" width="90" height="288" rx="45" fill="url(#redGradient)"/>
  <rect x="1160" y="720" width="90" height="608" rx="45" fill="url(#redGradient)"/>
  <rect x="1320" y="560" width="90" height="928" rx="45" fill="url(#redGradient)"/>
  <rect x="1500" y="720" width="90" height="608" rx="45" fill="url(#redGradient)"/>
  <rect x="1680" y="880" width="90" height="288" rx="45" fill="url(#redGradient)"/>
</svg>
